# xmcd CD database file
#
# Track frame offsets:
#	150
#	38745
#	61737
#	81782
#	109735
#	140677
#	185335
#	210412
#	245705
#	284175
#
# Disc length: 4216 seconds
#
# Revision: 0
# Processed by: cddbd v1.4PL0 Copyright (c) Steve Scherf et al.
# Submitted via: CDex 1.50Beta5
#
DISCID=9210760a
DTITLE=Ron Holloway - Groove Update
DYEAR=1998
DGENRE=Jazz
TTITLE0=Epistrophy
TTITLE1=Lulu's Back In Town
TTITLE2=Do You Know What It Means To Miss New Orleans?
TTITLE3=Three Miles Down
TTITLE4=Gingerbread Boy
TTITLE5=Chameleon
TTITLE6=We Almost Lost Detroit
TTITLE7=East Of The Sun (And West Of The Moon)
TTITLE8=Psychedelic Sally
TTITLE9=Born To Be Blue
EXTD=YEAR: 1998
EXTT0=
EXTT1=
EXTT2=
EXTT3=
EXTT4=
EXTT5=
EXTT6=
EXTT7=
EXTT8=
EXTT9=
PLAYORDER=
